# xmcd CD database file
#
# Track frame offsets:
#	150
#	22016
#	44188
#	74410
#
# Disc length: 4440 seconds
#
# Revision: 0
# Processed by: cddbd v1.5.1PL0 Copyright (c) Steve Scherf et al.
# Submitted via: CDex 1.51
#
DISCID=3a115604
DTITLE=COLDPLAY - SPEED OF SOUND
DYEAR=2005
DGENRE=Rock
TTITLE0=SPEED OF SOUND
TTITLE1=THINGS I DON'T UNDERSTAND
TTITLE2=PROOF
TTITLE3=DATA TRACK
EXTD=YEAR: 2005
EXTT0=
EXTT1=
EXTT2=
EXTT3=
PLAYORDER=
